<mxfile host="app.diagrams.net" modified="2021-01-17T04:43:51.527Z" agent="5.0 (Macintosh; Intel Mac OS X 10_15_6) AppleWebKit/537.36 (KHTML, like Gecko) Chrome/87.0.4280.141 Safari/537.36" etag="JoyeFnQwvy8ZvM508zB5" version="14.2.4" type="github" pages="2">
  <diagram id="kLP2BdOTn0ogQ7rsq4Yj" name="Page-1">
    <mxGraphModel dx="270" dy="321" grid="1" gridSize="10" guides="1" tooltips="1" connect="1" arrows="1" fold="1" page="0" pageScale="1" pageWidth="827" pageHeight="1169" background="#114B5F" math="0" shadow="0">
      <root>
        <mxCell id="0" />
        <mxCell id="1" parent="0" />
        <mxCell id="DcH6-fHPDkZ2MKy74Bkg-1" value="" style="shape=table;html=1;whiteSpace=wrap;startSize=0;container=1;collapsible=0;childLayout=tableLayout;comic=1;fillColor=#F45B69;strokeColor=#028090;fontColor=#E4FDE1;" vertex="1" parent="1">
          <mxGeometry x="540" y="190" width="120" height="280" as="geometry" />
        </mxCell>
        <mxCell id="DcH6-fHPDkZ2MKy74Bkg-2" value="" style="shape=partialRectangle;html=1;whiteSpace=wrap;collapsible=0;dropTarget=0;pointerEvents=0;fillColor=none;top=0;left=0;bottom=0;right=0;points=[[0,0.5],[1,0.5]];portConstraint=eastwest;strokeColor=#028090;fontColor=#E4FDE1;" vertex="1" parent="DcH6-fHPDkZ2MKy74Bkg-1">
          <mxGeometry width="120" height="40" as="geometry" />
        </mxCell>
        <mxCell id="DcH6-fHPDkZ2MKy74Bkg-3" value="&lt;font face=&quot;Architects Daughter&quot; data-font-src=&quot;https://fonts.googleapis.com/css?family=Architects+Daughter&quot;&gt;Header&lt;/font&gt;" style="shape=partialRectangle;html=1;whiteSpace=wrap;connectable=0;overflow=hidden;fillColor=none;top=0;left=0;bottom=0;right=0;strokeColor=#028090;fontColor=#E4FDE1;" vertex="1" parent="DcH6-fHPDkZ2MKy74Bkg-2">
          <mxGeometry width="120" height="40" as="geometry" />
        </mxCell>
        <mxCell id="DcH6-fHPDkZ2MKy74Bkg-4" value="" style="shape=partialRectangle;html=1;whiteSpace=wrap;collapsible=0;dropTarget=0;pointerEvents=0;fillColor=none;top=0;left=0;bottom=0;right=0;points=[[0,0.5],[1,0.5]];portConstraint=eastwest;strokeColor=#028090;fontColor=#E4FDE1;" vertex="1" parent="DcH6-fHPDkZ2MKy74Bkg-1">
          <mxGeometry y="40" width="120" height="40" as="geometry" />
        </mxCell>
        <mxCell id="DcH6-fHPDkZ2MKy74Bkg-5" value="&lt;span style=&quot;font-family: &amp;#34;architects daughter&amp;#34;&quot;&gt;Load Command&lt;/span&gt;" style="shape=partialRectangle;html=1;whiteSpace=wrap;connectable=0;overflow=hidden;fillColor=none;top=0;left=0;bottom=0;right=0;strokeColor=#028090;fontColor=#E4FDE1;" vertex="1" parent="DcH6-fHPDkZ2MKy74Bkg-4">
          <mxGeometry width="120" height="40" as="geometry" />
        </mxCell>
        <mxCell id="DcH6-fHPDkZ2MKy74Bkg-6" value="" style="shape=partialRectangle;html=1;whiteSpace=wrap;collapsible=0;dropTarget=0;pointerEvents=0;fillColor=none;top=0;left=0;bottom=0;right=0;points=[[0,0.5],[1,0.5]];portConstraint=eastwest;strokeColor=#028090;fontColor=#E4FDE1;" vertex="1" parent="DcH6-fHPDkZ2MKy74Bkg-1">
          <mxGeometry y="80" width="120" height="40" as="geometry" />
        </mxCell>
        <mxCell id="DcH6-fHPDkZ2MKy74Bkg-7" value="&lt;span style=&quot;font-family: &amp;#34;architects daughter&amp;#34;&quot;&gt;Load Command&lt;/span&gt;" style="shape=partialRectangle;html=1;whiteSpace=wrap;connectable=0;overflow=hidden;fillColor=none;top=0;left=0;bottom=0;right=0;strokeColor=#028090;fontColor=#E4FDE1;" vertex="1" parent="DcH6-fHPDkZ2MKy74Bkg-6">
          <mxGeometry width="120" height="40" as="geometry" />
        </mxCell>
        <mxCell id="DcH6-fHPDkZ2MKy74Bkg-8" value="" style="shape=partialRectangle;html=1;whiteSpace=wrap;collapsible=0;dropTarget=0;pointerEvents=0;fillColor=none;top=0;left=0;bottom=0;right=0;points=[[0,0.5],[1,0.5]];portConstraint=eastwest;strokeColor=#028090;fontColor=#E4FDE1;" vertex="1" parent="DcH6-fHPDkZ2MKy74Bkg-1">
          <mxGeometry y="120" width="120" height="40" as="geometry" />
        </mxCell>
        <mxCell id="DcH6-fHPDkZ2MKy74Bkg-9" value="..." style="shape=partialRectangle;html=1;whiteSpace=wrap;connectable=0;overflow=hidden;fillColor=none;top=0;left=0;bottom=0;right=0;strokeColor=#028090;fontColor=#E4FDE1;" vertex="1" parent="DcH6-fHPDkZ2MKy74Bkg-8">
          <mxGeometry width="120" height="40" as="geometry" />
        </mxCell>
        <mxCell id="DcH6-fHPDkZ2MKy74Bkg-10" value="" style="shape=partialRectangle;html=1;whiteSpace=wrap;collapsible=0;dropTarget=0;pointerEvents=0;fillColor=none;top=0;left=0;bottom=0;right=0;points=[[0,0.5],[1,0.5]];portConstraint=eastwest;strokeColor=#028090;fontColor=#E4FDE1;" vertex="1" parent="DcH6-fHPDkZ2MKy74Bkg-1">
          <mxGeometry y="160" width="120" height="40" as="geometry" />
        </mxCell>
        <mxCell id="DcH6-fHPDkZ2MKy74Bkg-11" value="&lt;span style=&quot;font-family: &amp;#34;architects daughter&amp;#34;&quot;&gt;Section&lt;/span&gt;" style="shape=partialRectangle;html=1;whiteSpace=wrap;connectable=0;overflow=hidden;fillColor=none;top=0;left=0;bottom=0;right=0;strokeColor=#028090;fontColor=#E4FDE1;" vertex="1" parent="DcH6-fHPDkZ2MKy74Bkg-10">
          <mxGeometry width="120" height="40" as="geometry" />
        </mxCell>
        <mxCell id="DcH6-fHPDkZ2MKy74Bkg-12" value="" style="shape=partialRectangle;html=1;whiteSpace=wrap;collapsible=0;dropTarget=0;pointerEvents=0;fillColor=none;top=0;left=0;bottom=0;right=0;points=[[0,0.5],[1,0.5]];portConstraint=eastwest;strokeColor=#028090;fontColor=#E4FDE1;" vertex="1" parent="DcH6-fHPDkZ2MKy74Bkg-1">
          <mxGeometry y="200" width="120" height="40" as="geometry" />
        </mxCell>
        <mxCell id="DcH6-fHPDkZ2MKy74Bkg-13" value="&lt;span style=&quot;font-family: &amp;#34;architects daughter&amp;#34;&quot;&gt;Section&lt;/span&gt;" style="shape=partialRectangle;html=1;whiteSpace=wrap;connectable=0;overflow=hidden;fillColor=none;top=0;left=0;bottom=0;right=0;strokeColor=#028090;fontColor=#E4FDE1;" vertex="1" parent="DcH6-fHPDkZ2MKy74Bkg-12">
          <mxGeometry width="120" height="40" as="geometry" />
        </mxCell>
        <mxCell id="DcH6-fHPDkZ2MKy74Bkg-14" value="" style="shape=partialRectangle;html=1;whiteSpace=wrap;collapsible=0;dropTarget=0;pointerEvents=0;fillColor=none;top=0;left=0;bottom=0;right=0;points=[[0,0.5],[1,0.5]];portConstraint=eastwest;strokeColor=#028090;fontColor=#E4FDE1;" vertex="1" parent="DcH6-fHPDkZ2MKy74Bkg-1">
          <mxGeometry y="240" width="120" height="40" as="geometry" />
        </mxCell>
        <mxCell id="DcH6-fHPDkZ2MKy74Bkg-15" value="..." style="shape=partialRectangle;html=1;whiteSpace=wrap;connectable=0;overflow=hidden;fillColor=none;top=0;left=0;bottom=0;right=0;strokeColor=#028090;fontColor=#E4FDE1;" vertex="1" parent="DcH6-fHPDkZ2MKy74Bkg-14">
          <mxGeometry width="120" height="40" as="geometry" />
        </mxCell>
        <mxCell id="DcH6-fHPDkZ2MKy74Bkg-16" value="Mach-O" style="text;html=1;align=center;verticalAlign=middle;resizable=0;points=[];autosize=1;fontColor=#E4FDE1;fontFamily=Architects Daughter;fontSource=https%3A%2F%2Ffonts.googleapis.com%2Fcss%3Ffamily%3DArchitects%2BDaughter;" vertex="1" parent="1">
          <mxGeometry x="570" y="160" width="60" height="20" as="geometry" />
        </mxCell>
      </root>
    </mxGraphModel>
  </diagram>
  <diagram id="sKZW60PV3cUoFSLiOSq4" name="Page-2">
    <mxGraphModel dx="1176" dy="738" grid="1" gridSize="10" guides="1" tooltips="1" connect="1" arrows="1" fold="1" page="1" pageScale="1" pageWidth="827" pageHeight="1169" background="#114B5F" math="0" shadow="0">
      <root>
        <mxCell id="YcNe39R3D3S5rr6-rrE4-0" />
        <mxCell id="YcNe39R3D3S5rr6-rrE4-1" parent="YcNe39R3D3S5rr6-rrE4-0" />
      </root>
    </mxGraphModel>
  </diagram>
</mxfile>
